<svg xmlns="http://www.w3.org/2000/svg" viewBox="0 0 1200 420" width="1200" height="420" preserveAspectRatio="xMidYMid meet" role="img" aria-labelledby="title desc">
  <title id="title">lahfir/agent-desktop — GitHub stars and ClawHub downloads over time</title>
  <desc id="desc">Time-series chart showing GitHub stars and ClawHub downloads for lahfir/agent-desktop.</desc>
  <defs>
    <linearGradient id="fill1" x1="0" y1="0" x2="0" y2="1">
      <stop offset="0%" stop-color="#58a6ff" stop-opacity="0.28"/>
      <stop offset="100%" stop-color="#58a6ff" stop-opacity="0"/>
    </linearGradient>
    <linearGradient id="fill2" x1="0" y1="0" x2="0" y2="1">
      <stop offset="0%" stop-color="#ff7b35" stop-opacity="0.28"/>
      <stop offset="100%" stop-color="#ff7b35" stop-opacity="0"/>
    </linearGradient>
    <linearGradient id="stroke1" x1="0" y1="0" x2="1" y2="0">
      <stop offset="0%" stop-color="#58a6ff"/>
      <stop offset="100%" stop-color="#a5d6ff"/>
    </linearGradient>
    <linearGradient id="stroke2" x1="0" y1="0" x2="1" y2="0">
      <stop offset="0%" stop-color="#ff7b35"/>
      <stop offset="100%" stop-color="#ffa657"/>
    </linearGradient>
    <filter id="glow1" x="-10%" y="-50%" width="120%" height="200%">
      <feGaussianBlur in="SourceGraphic" stdDeviation="3" result="blur"/>
      <feColorMatrix in="blur" type="matrix" values="0 0 0 0 0.345  0 0 0 0 0.651  0 0 0 0 1.000  0 0 0 0.32 0" result="coloredGlow"/>
      <feMerge>
        <feMergeNode in="coloredGlow"/>
        <feMergeNode in="SourceGraphic"/>
      </feMerge>
    </filter>
    <filter id="glow2" x="-10%" y="-50%" width="120%" height="200%">
      <feGaussianBlur in="SourceGraphic" stdDeviation="3" result="blur"/>
      <feColorMatrix in="blur" type="matrix" values="0 0 0 0 1.000  0 0 0 0 0.482  0 0 0 0 0.208  0 0 0 0.32 0" result="coloredGlow"/>
      <feMerge>
        <feMergeNode in="coloredGlow"/>
        <feMergeNode in="SourceGraphic"/>
      </feMerge>
    </filter>
    <clipPath id="plot-clip">
      <rect x="72" y="72" width="1056" height="296"/>
    </clipPath>
  </defs>

  <rect width="100%" height="100%" fill="#0d1117"/>
  <rect x="0.5" y="0.5" width="1199" height="419" fill="none" stroke="#30363d" stroke-width="1" rx="8" ry="8"/>

  <text x="72" y="30" fill="#e6edf3" font-family="-apple-system, BlinkMacSystemFont, 'Segoe UI', Helvetica, Arial, sans-serif" font-size="18" font-weight="600">
    lahfir/agent-desktop
  </text>
  <text x="72" y="50" fill="#8b949e" font-family="-apple-system, BlinkMacSystemFont, 'Segoe UI', Helvetica, Arial, sans-serif" font-size="12" font-weight="400">
    GitHub stars · ClawHub downloads — updated daily
  </text>

  <g transform="translate(1128, 30)" text-anchor="end" font-family="-apple-system, BlinkMacSystemFont, 'Segoe UI', Helvetica, Arial, sans-serif" font-size="14" font-weight="600" style="font-variant-numeric: tabular-nums;">
    <text fill="#58a6ff">★ 89 <tspan fill="#8b949e" font-weight="400" font-size="11">GitHub</tspan></text>
    <text y="20" fill="#ff7b35">⬇ 510 <tspan fill="#8b949e" font-weight="400" font-size="11">ClawHub</tspan></text>
  </g>

  <g font-family="-apple-system, BlinkMacSystemFont, 'Segoe UI', Helvetica, Arial, sans-serif" font-size="10" fill="#8b949e" style="font-variant-numeric: tabular-nums;">
    <text x="64" y="367.00" text-anchor="end" fill="#58a6ff" opacity="0.85">0</text>
    <line x1="72" x2="1128" y1="292.00" y2="292.00" stroke="#21262d" stroke-width="1" stroke-dasharray="2 4" opacity="0.6"/><text x="64" y="295.00" text-anchor="end" fill="#58a6ff" opacity="0.85">25</text>
    <line x1="72" x2="1128" y1="220.00" y2="220.00" stroke="#21262d" stroke-width="1" stroke-dasharray="2 4" opacity="0.6"/><text x="64" y="223.00" text-anchor="end" fill="#58a6ff" opacity="0.85">50</text>
    <line x1="72" x2="1128" y1="148.00" y2="148.00" stroke="#21262d" stroke-width="1" stroke-dasharray="2 4" opacity="0.6"/><text x="64" y="151.00" text-anchor="end" fill="#58a6ff" opacity="0.85">75</text>
    <line x1="72" x2="1128" y1="76.00" y2="76.00" stroke="#21262d" stroke-width="1" stroke-dasharray="2 4" opacity="0.6"/><text x="64" y="79.00" text-anchor="end" fill="#58a6ff" opacity="0.85">100</text>
  </g>

  <g font-family="-apple-system, BlinkMacSystemFont, 'Segoe UI', Helvetica, Arial, sans-serif" font-size="10" fill="#ff7b35" opacity="0.85" style="font-variant-numeric: tabular-nums;">
    <text x="1136" y="367.00" text-anchor="start">0</text>
    <text x="1136" y="295.00" text-anchor="start">250</text>
    <text x="1136" y="223.00" text-anchor="start">500</text>
    <text x="1136" y="151.00" text-anchor="start">750</text>
    <text x="1136" y="79.00" text-anchor="start">1.0k</text>
  </g>

  <g font-family="-apple-system, BlinkMacSystemFont, 'Segoe UI', Helvetica, Arial, sans-serif" font-size="10" fill="#8b949e" style="font-variant-numeric: tabular-nums;">
    <text x="72.00" y="382" text-anchor="middle">Feb 21</text>
    <text x="289.90" y="382" text-anchor="middle">Mar 6</text>
    <text x="491.05" y="382" text-anchor="middle">Mar 18</text>
    <text x="708.95" y="382" text-anchor="middle">Mar 31</text>
    <text x="910.10" y="382" text-anchor="middle">Apr 12</text>
    <text x="1128.00" y="382" text-anchor="middle">Apr 25</text>
  </g>

  <line x1="72" x2="1128" y1="364" y2="364" stroke="#30363d" stroke-width="1" opacity="0.8"/>

  <g clip-path="url(#plot-clip)">
    <path d="M 72.00 358.24 C 74.79 358.24, 83.17 358.72, 88.76 358.24 C 94.35 357.76, 99.94 355.84, 105.52 355.36 C 111.11 354.88, 116.70 355.36, 122.29 355.36 C 127.87 355.36, 133.46 355.84, 139.05 355.36 C 144.63 354.88, 150.22 352.96, 155.81 352.48 C 161.40 352.00, 166.98 352.48, 172.57 352.48 C 178.16 352.48, 183.75 354.40, 189.33 352.48 C 194.92 350.56, 200.51 343.84, 206.10 340.96 C 211.68 338.08, 217.27 337.12, 222.86 335.20 C 228.44 333.28, 234.03 332.32, 239.62 329.44 C 245.21 326.56, 250.79 319.84, 256.38 317.92 C 261.97 316.00, 267.56 317.92, 273.14 317.92 C 278.73 317.92, 284.32 319.84, 289.90 317.92 C 295.49 316.00, 301.08 308.80, 306.67 306.40 C 312.25 304.00, 317.84 304.96, 323.43 303.52 C 329.02 302.08, 334.60 301.12, 340.19 297.76 C 345.78 294.40, 351.37 285.76, 356.95 283.36 C 362.54 280.96, 368.13 285.28, 373.71 283.36 C 379.30 281.44, 384.89 273.76, 390.48 271.84 C 396.06 269.92, 401.65 271.84, 407.24 271.84 C 412.83 271.84, 418.41 271.84, 424.00 271.84 C 429.59 271.84, 435.17 271.84, 440.76 271.84 C 446.35 271.84, 451.94 271.84, 457.52 271.84 C 463.11 271.84, 468.70 271.84, 474.29 271.84 C 479.87 271.84, 485.46 272.32, 491.05 271.84 C 496.63 271.36, 502.22 269.44, 507.81 268.96 C 513.40 268.48, 518.98 268.96, 524.57 268.96 C 530.16 268.96, 535.75 268.96, 541.33 268.96 C 546.92 268.96, 552.51 268.96, 558.10 268.96 C 563.68 268.96, 569.27 268.96, 574.86 268.96 C 580.44 268.96, 586.03 268.96, 591.62 268.96 C 597.21 268.96, 602.79 268.96, 608.38 268.96 C 613.97 268.96, 619.56 268.96, 625.14 268.96 C 630.73 268.96, 636.32 269.44, 641.90 268.96 C 647.49 268.48, 653.08 266.56, 658.67 266.08 C 664.25 265.60, 669.84 266.08, 675.43 266.08 C 681.02 266.08, 686.60 266.08, 692.19 266.08 C 697.78 266.08, 703.37 267.04, 708.95 266.08 C 714.54 265.12, 720.13 261.28, 725.71 260.32 C 731.30 259.36, 736.89 260.80, 742.48 260.32 C 748.06 259.84, 753.65 257.92, 759.24 257.44 C 764.83 256.96, 770.41 258.88, 776.00 257.44 C 781.59 256.00, 787.17 251.68, 792.76 248.80 C 798.35 245.92, 803.94 242.08, 809.52 240.16 C 815.11 238.24, 820.70 237.76, 826.29 237.28 C 831.87 236.80, 837.46 237.28, 843.05 237.28 C 848.63 237.28, 854.22 237.28, 859.81 237.28 C 865.40 237.28, 870.98 237.76, 876.57 237.28 C 882.16 236.80, 887.75 235.36, 893.33 234.40 C 898.92 233.44, 904.51 233.92, 910.10 231.52 C 915.68 229.12, 921.27 225.76, 926.86 220.00 C 932.44 214.24, 938.03 204.64, 943.62 196.96 C 949.21 189.28, 954.79 178.24, 960.38 173.92 C 965.97 169.60, 971.56 172.00, 977.14 171.04 C 982.73 170.08, 988.32 168.64, 993.90 168.16 C 999.49 167.68, 1005.08 168.16, 1010.67 168.16 C 1016.25 168.16, 1021.84 168.16, 1027.43 168.16 C 1033.02 168.16, 1038.60 169.12, 1044.19 168.16 C 1049.78 167.20, 1055.37 163.36, 1060.95 162.40 C 1066.54 161.44, 1072.13 162.40, 1077.71 162.40 C 1083.30 162.40, 1088.89 170.08, 1094.48 162.40 C 1100.06 154.72, 1105.65 125.44, 1111.24 116.32 C 1116.83 107.20, 1125.21 109.12, 1128.00 107.68 L 1128.00 364.00 L 72.00 364.00 Z" fill="url(#fill1)" stroke="none"/>
    

    <path d="M 72.00 358.24 C 74.79 358.24, 83.17 358.72, 88.76 358.24 C 94.35 357.76, 99.94 355.84, 105.52 355.36 C 111.11 354.88, 116.70 355.36, 122.29 355.36 C 127.87 355.36, 133.46 355.84, 139.05 355.36 C 144.63 354.88, 150.22 352.96, 155.81 352.48 C 161.40 352.00, 166.98 352.48, 172.57 352.48 C 178.16 352.48, 183.75 354.40, 189.33 352.48 C 194.92 350.56, 200.51 343.84, 206.10 340.96 C 211.68 338.08, 217.27 337.12, 222.86 335.20 C 228.44 333.28, 234.03 332.32, 239.62 329.44 C 245.21 326.56, 250.79 319.84, 256.38 317.92 C 261.97 316.00, 267.56 317.92, 273.14 317.92 C 278.73 317.92, 284.32 319.84, 289.90 317.92 C 295.49 316.00, 301.08 308.80, 306.67 306.40 C 312.25 304.00, 317.84 304.96, 323.43 303.52 C 329.02 302.08, 334.60 301.12, 340.19 297.76 C 345.78 294.40, 351.37 285.76, 356.95 283.36 C 362.54 280.96, 368.13 285.28, 373.71 283.36 C 379.30 281.44, 384.89 273.76, 390.48 271.84 C 396.06 269.92, 401.65 271.84, 407.24 271.84 C 412.83 271.84, 418.41 271.84, 424.00 271.84 C 429.59 271.84, 435.17 271.84, 440.76 271.84 C 446.35 271.84, 451.94 271.84, 457.52 271.84 C 463.11 271.84, 468.70 271.84, 474.29 271.84 C 479.87 271.84, 485.46 272.32, 491.05 271.84 C 496.63 271.36, 502.22 269.44, 507.81 268.96 C 513.40 268.48, 518.98 268.96, 524.57 268.96 C 530.16 268.96, 535.75 268.96, 541.33 268.96 C 546.92 268.96, 552.51 268.96, 558.10 268.96 C 563.68 268.96, 569.27 268.96, 574.86 268.96 C 580.44 268.96, 586.03 268.96, 591.62 268.96 C 597.21 268.96, 602.79 268.96, 608.38 268.96 C 613.97 268.96, 619.56 268.96, 625.14 268.96 C 630.73 268.96, 636.32 269.44, 641.90 268.96 C 647.49 268.48, 653.08 266.56, 658.67 266.08 C 664.25 265.60, 669.84 266.08, 675.43 266.08 C 681.02 266.08, 686.60 266.08, 692.19 266.08 C 697.78 266.08, 703.37 267.04, 708.95 266.08 C 714.54 265.12, 720.13 261.28, 725.71 260.32 C 731.30 259.36, 736.89 260.80, 742.48 260.32 C 748.06 259.84, 753.65 257.92, 759.24 257.44 C 764.83 256.96, 770.41 258.88, 776.00 257.44 C 781.59 256.00, 787.17 251.68, 792.76 248.80 C 798.35 245.92, 803.94 242.08, 809.52 240.16 C 815.11 238.24, 820.70 237.76, 826.29 237.28 C 831.87 236.80, 837.46 237.28, 843.05 237.28 C 848.63 237.28, 854.22 237.28, 859.81 237.28 C 865.40 237.28, 870.98 237.76, 876.57 237.28 C 882.16 236.80, 887.75 235.36, 893.33 234.40 C 898.92 233.44, 904.51 233.92, 910.10 231.52 C 915.68 229.12, 921.27 225.76, 926.86 220.00 C 932.44 214.24, 938.03 204.64, 943.62 196.96 C 949.21 189.28, 954.79 178.24, 960.38 173.92 C 965.97 169.60, 971.56 172.00, 977.14 171.04 C 982.73 170.08, 988.32 168.64, 993.90 168.16 C 999.49 167.68, 1005.08 168.16, 1010.67 168.16 C 1016.25 168.16, 1021.84 168.16, 1027.43 168.16 C 1033.02 168.16, 1038.60 169.12, 1044.19 168.16 C 1049.78 167.20, 1055.37 163.36, 1060.95 162.40 C 1066.54 161.44, 1072.13 162.40, 1077.71 162.40 C 1083.30 162.40, 1088.89 170.08, 1094.48 162.40 C 1100.06 154.72, 1105.65 125.44, 1111.24 116.32 C 1116.83 107.20, 1125.21 109.12, 1128.00 107.68" fill="none" stroke="url(#stroke1)" stroke-width="2.25" stroke-linecap="round" stroke-linejoin="round" filter="url(#glow1)" pathLength="100" stroke-dasharray="100" stroke-dashoffset="100">
      <animate attributeName="stroke-dashoffset" from="100" to="0" dur="1.4s" begin="0s" fill="freeze" calcMode="spline" keySplines="0.4 0 0.2 1" keyTimes="0;1" values="100;0"/>
    </path>

    <line x1="72" x2="1128.00" y1="217.12" y2="217.12" stroke="#ff7b35" stroke-width="1.5" stroke-dasharray="5 5" opacity="0">
      <animate attributeName="opacity" from="0" to="0.7" dur="0.6s" begin="0.4s" fill="freeze"/>
    </line>

    <g opacity="0">
      <circle cx="1128.00" cy="107.68" r="7" fill="#58a6ff" opacity="0.22"/>
      <circle cx="1128.00" cy="107.68" r="4" fill="#0d1117" stroke="#58a6ff" stroke-width="2"/>
      <animate attributeName="opacity" from="0" to="1" begin="1.4s" dur="0.4s" fill="freeze"/>
    </g>
    <g opacity="0">
      <circle cx="1128.00" cy="217.12" r="7" fill="#ff7b35" opacity="0.22"/>
      <circle cx="1128.00" cy="217.12" r="4" fill="#0d1117" stroke="#ff7b35" stroke-width="2"/>
      <animate attributeName="opacity" from="0" to="1" begin="1.0s" dur="0.4s" fill="freeze"/>
    </g>
  </g>

  <text x="1116.00" y="207.12" text-anchor="end" font-family="-apple-system, BlinkMacSystemFont, 'Segoe UI', Helvetica, Arial, sans-serif" font-size="11" font-weight="600" fill="#ff7b35" opacity="0" style="font-variant-numeric: tabular-nums;">
    510 downloads
    <animate attributeName="opacity" from="0" to="1" begin="1.2s" dur="0.4s" fill="freeze"/>
  </text>
  <text x="1116.00" y="221.12" text-anchor="end" font-family="-apple-system, BlinkMacSystemFont, 'Segoe UI', Helvetica, Arial, sans-serif" font-size="9" fill="#8b949e" opacity="0">
    daily history starts now
    <animate attributeName="opacity" from="0" to="0.85" begin="1.4s" dur="0.4s" fill="freeze"/>
  </text>

  <text x="1128" y="408" text-anchor="end" font-family="-apple-system, BlinkMacSystemFont, 'Segoe UI', Helvetica, Arial, sans-serif" font-size="10" fill="#8b949e" opacity="0.7">
    Updated 2026-04-25
  </text>
</svg>